# xmcd
#
# Track frame offsets: 
#        300
#        34834
#        54000
#        73241
#        102003
#        132414
#        179543
#        201857
#        237591
#        274224
#
# Disc length: 3898 seconds
#
# Revision: 0
# Processed by: cddbd v1.5.2PL0 Copyright (c) Steve Scherf et al.
# Submitted via: ExactAudioCopy v1.0b1
#
DISCID=960f360a
DTITLE=Blindside Blues Band - Smokehouse Sessions
DYEAR=2009
DGENRE=General Blues
TTITLE0=Little Red Rooster
TTITLE1=Rock Me Baby
TTITLE2=Dirty Doublr Dealer
TTITLE3=Sweet Little Angel
TTITLE4=Ramblin' On My Mind
TTITLE5=Hoochie Coochie Man
TTITLE6=Same Old Situation
TTITLE7=Who Knows Jam
TTITLE8=Crossroads 69
TTITLE9=Albatross
EXTD=
EXTT0=
EXTT1=
EXTT2=
EXTT3=
EXTT4=
EXTT5=
EXTT6=
EXTT7=
EXTT8=
EXTT9=
PLAYORDER=
